# xmcd
#
# Track frame offsets:
#        150
#        36150
#        58962
#        80802
#        116950
#        138405
#        168725
#        189220
#        213990
#        230782
#        257775
#        280520
#
# Disc length: 4398 seconds
#
# Revision: 0
# Processed by: cddbd v1.5.1PL0 Copyright (c) Steve Scherf et al.
# Submitted via: ExactAudioCopy v0.95a5
#
DISCID=b8112c0c
DTITLE=Jimmy Smith - The Blue Note Years
DYEAR=1999
DGENRE=Jazz
TTITLE0=When Johnny Comes Marching Home
TTITLE1=The Way You Look Tonight
TTITLE2=I Can't Get Started
TTITLE3=Back At The Chicken Shack
TTITLE4=Autumn Leaves
TTITLE5=Lover Come Back To Me
TTITLE6=Summertime
TTITLE7=Jumpin' The Blues
TTITLE8=Ain't Misbehavin'
TTITLE9=How High The Moon
TTITLE10='S Wonderful
TTITLE11=My Funny Valentine
EXTD=
EXTT0=
EXTT1=
EXTT2=
EXTT3=
EXTT4=
EXTT5=
EXTT6=
EXTT7=
EXTT8=
EXTT9=
EXTT10=
EXTT11=
PLAYORDER=
